<svg width="17" height="17" fill="none" xmlns="http://www.w3.org/2000/svg"><path fill-rule="evenodd" clip-rule="evenodd" d="M14.486 14.486h-2.52V10.54c0-.94-.017-2.15-1.31-2.15-1.313 0-1.513 1.025-1.513 2.083v4.013H6.625V6.373h2.417v1.11h.034c.336-.639 1.16-1.311 2.386-1.311 2.553 0 3.024 1.68 3.024 3.865v4.449zM3.782 5.265a1.461 1.461 0 1 1 0-2.925 1.462 1.462 0 0 1 0 2.925zm-1.263 9.22h2.524V6.374H2.519v8.113zM15.742 0H1.254C.562 0 0 .549 0 1.226v14.547C0 16.45.562 17 1.254 17h14.488c.694 0 1.258-.55 1.258-1.227V1.226C17 .549 16.436 0 15.742 0z" fill="#241C15"/></svg>