<svg width="19" height="20" fill="none" xmlns="http://www.w3.org/2000/svg"><path fill-rule="evenodd" clip-rule="evenodd" d="M7.048 5.563a8.8 8.8 0 0 1 2.51-1.97h.044l-.22.57c0 .043 0 .087.044.043.529-.35 1.41-.7 2.203-.743v.043l-.353.35.044.044c.529 0 1.322.219 1.806.438v.13a7.582 7.582 0 0 0-5.99 1.095h-.088zm6.827 8.575v-.088s0-.044 0 0c0 0-1.63.175-3.127-.35.176-.525.616-.35 1.277-.262 1.19.043 2.202-.132 3.04-.35a7.069 7.069 0 0 0 2.246-1.094c.264.481.308 1.05.308 1.05s.22 0 .352.087c.133.088.265.263.177.7-.133.875-.529 1.575-1.146 2.232a5.907 5.907 0 0 1-2.29 1.4c-2.423.743-4.845-.088-5.638-1.882l-.132-.437c-.353-1.181-.088-2.625.837-3.5l.088-.219c0-.044 0-.131-.088-.175-.309-.437-1.366-1.225-1.146-2.669.133-1.05 1.058-1.75 1.939-1.75h.22l1.013.088c.528 0 1.013-.044 1.542-.481.22-.175.352-.307.616-.35h.22c.133 0 .265 0 .397.087.44.306.484 1.006.528 1.531l.044 1.182c0 .48.177.568.44.612l.441.131a2.65 2.65 0 0 1 1.146.57c.132.13.22.262.22.393.088.481-.397 1.094-1.63 1.662a8.42 8.42 0 0 1-4.449.613c-.88-.131-1.41 1.006-.88 1.75.352.525 1.32.875 2.202.875 2.202 0 3.876-.919 4.493-1.706l.044-.044V13.7c-.529.306-2.775 1.663-5.198 1.269 0 0-.308-.044-.573-.175-.22-.044-.66-.263-.704-.7 1.938.569 3.171 0 3.171 0v.044zm-10.66-4.55a2.6 2.6 0 0 0-1.673 1.05 4.385 4.385 0 0 1-.661-.7c-.617-1.094.617-3.194 1.454-4.375C4.449 2.675 7.752.443 9.25.838c.264.087 1.101 1.006 1.101 1.006S8.81 2.675 7.4 3.813c-1.894 1.443-3.348 3.5-4.184 5.775zm1.102 4.987h-.309c-1.013 0-2.114-.919-2.202-1.969-.132-1.18.44-2.1 1.586-2.318h.44c.617 0 1.498.437 1.718 1.75.176 1.18-.132 2.318-1.233 2.537zm13.787-2.1l-.133-.437-.176-.438c.309-.437.353-.875.309-1.137-.044-.263-.177-.525-.44-.788a3.401 3.401 0 0 0-1.454-.7l-.353-.087-.044-1.225c0-.263 0-.657-.176-1.094a2.952 2.952 0 0 0-.749-1.313c.881-.918 1.498-1.968 1.498-2.843 0-1.75-2.159-2.232-4.801-1.182l-.529.263L9.999.488C7.048-2.094-2.423 8.188.573 10.638l.66.612c-.176.438-.22.919-.176 1.444.105.72.463 1.378 1.012 1.86.549.48 1.252.752 1.983.765 1.19 2.669 3.877 4.287 7.048 4.375 3.348.087 6.167-1.444 7.356-4.2.088-.219.396-1.094.396-1.881 0-.788-.44-1.094-.748-1.094v-.044z" fill="#000"/></svg>