<svg width="99" height="28" fill="none" xmlns="http://www.w3.org/2000/svg"><path fill-rule="evenodd" clip-rule="evenodd" d="M19.46 13.222h.615c.102-.207.102-.622 0-1.089-.103-.674-.308-1.037-.666-1.037-.41.104-.41.57-.256 1.245.051.363.205.674.358.881h-.05zm-3.226.519c.256.155.41.207.512.155l-.051-.259a1.528 1.528 0 0 0-.717-.518 1.923 1.923 0 0 0-1.895.207c-.154.104-.358.311-.307.415l.102.052c.154 0 .666-.208 1.28-.26.41 0 .769.104 1.025.208h.05zm-.563.363c-.359 0-.513.155-.666.259l-.205.26v.103h.102l.256-.052c.513-.207.82-.155 1.127-.155h.307v-.104c-.05-.156-.46-.415-.921-.311zm2.714 1.14c.256.104.512.104.614-.103.052-.156-.05-.415-.307-.519-.205-.155-.512-.103-.563.104-.103.155 0 .415.256.518zm1.536-1.4c-.154 0-.307.26-.358.519 0 .26.153.519.358.519s.359-.26.359-.519c0-.26-.154-.518-.308-.518h-.05zM6.555 18.77c-.102 0-.154.052-.205 0a.405.405 0 0 1-.358-.103v-.623l.102-.103c.154-.363.41-.933.103-1.556a1.322 1.322 0 0 0-1.024-.726c-.41-.052-.871.104-1.127.415-.461.519-.512 1.14-.41 1.4l.102.104c.052 0 .205-.052.256-.26 0-.155.103-.31.205-.518.103-.155.256-.26.512-.311.205 0 .41 0 .564.104.307.207.41.622.307.985-.051.155-.205.518-.154.83 0 .57.41.83.717.83a.858.858 0 0 0 .615-.26v-.156c-.051-.052-.154 0-.205 0v-.052zm18.436.934c-.256 1.192-.768 2.23-1.639 3.11a5.965 5.965 0 0 1-1.895 1.505l-1.229.518c-3.277 1.089-6.657-.104-7.733-2.696a5.403 5.403 0 0 1-.319-2.907 5.37 5.37 0 0 1 1.241-2.641l.154-.311-.102-.26c-.461-.674-1.946-1.71-1.64-3.837.206-1.452 1.537-2.54 2.715-2.489h.307l1.383.156c.717 0 1.383-.052 2.15-.726.257-.207.462-.415.82-.467h.307c.154 0 .359 0 .512.156.615.415.718 1.4.718 2.126l.102 1.71c0 .675.205.779.512.882l.666.208c.603.113 1.167.38 1.639.778.153.207.256.363.256.57.102.726-.513 1.556-2.203 2.385a11.143 11.143 0 0 1-5.633.933l-.512-.103c-1.28-.156-1.946 1.504-1.229 2.592.512.726 1.792 1.193 3.073 1.193 3.021 0 5.274-1.296 6.145-2.437l.051-.104c.052-.052 0-.103 0 0-.717.415-3.84 2.385-7.17 1.763 0 0-.358 0-.716-.207-.307-.104-.922-.363-1.024-1.037 2.714.83 4.404.052 4.404.052v-.052l-.052-.104s-2.202.363-4.25-.415c.205-.778.82-.518 1.69-.415a12.527 12.527 0 0 0 4.2-.466c.921-.26 2.15-.83 3.123-1.556.307.674.461 1.504.461 1.504s.256-.052.46.052c.154.155.308.414.206 1.037h.051zM9.731 7.882c1.023-1.245 2.304-2.282 3.43-2.852h.051l-.307.83c0 .051 0 .103.051.051.717-.518 1.946-1.037 3.022-1.037 0 0 .051 0 0 .052a2.583 2.583 0 0 0-.461.519h.051c.768 0 1.844.31 2.56.725 0 0 0 .104-.102.104a10.068 10.068 0 0 0-4.272-.06 10.127 10.127 0 0 0-3.921 1.72c-.103 0-.154 0-.103-.052zm-5.327 5.703a3.582 3.582 0 0 0-2.253 1.504 6.18 6.18 0 0 1-.973-.933c-.768-1.556.87-4.563 2.048-6.274 2.92-4.149 7.426-7.363 9.577-6.793.307.104 1.434 1.4 1.434 1.4s-2.049 1.193-3.995 2.852a18.666 18.666 0 0 0-5.787 8.296l-.05-.052zM5.94 20.69h-.41c-1.382 0-2.918-1.296-3.072-2.8-.154-1.66.666-2.956 2.202-3.267.202-.042.409-.06.615-.052.82 0 2.048.675 2.355 2.593.256 1.556-.153 3.267-1.69 3.526zm18.949-2.956l-.154-.674-.256-.622a1.987 1.987 0 0 0-.205-2.696 4.589 4.589 0 0 0-1.997-1.037l-.512-.104v-1.763c0-.363-.052-.933-.256-1.555a4.163 4.163 0 0 0-1.025-1.867c1.28-1.348 2.049-2.852 2.049-4.148 0-2.385-2.97-3.111-6.606-1.556l-.769.26-1.331-1.4C9.679-3.06-3.278 11.562.871 15.088l.87.83a4.617 4.617 0 0 0-.205 2.074 4.164 4.164 0 0 0 1.383 2.644 4.223 4.223 0 0 0 2.714 1.14 10.592 10.592 0 0 0 3.905 4.554A10.403 10.403 0 0 0 15.261 28c4.609.155 8.552-2.075 10.14-6.068.102-.259.563-1.555.563-2.592 0-1.14-.615-1.608-1.024-1.608h-.052zm69.34-1.192c-.615 0-1.127-.83-1.127-1.97 0-1.141.512-2.023 1.126-2.023.769 0 1.076.726 1.076 2.022 0 1.297-.308 1.97-1.025 1.97h-.05zm-1.588-4.667c-.205.415-.205.519-.308.519-.204 0-.05-.312 0-.674.205-.778.103-1.349.103-1.349h-2.049v10.215h2.766v-3.37c.178.355.449.654.783.864.334.21.718.324 1.112.328 1.997 0 2.97-1.762 2.97-4.148 0-2.644-1.178-4.096-3.022-4.096-1.433 0-2.048 1.089-2.355 1.711zm-7.99-.104c-.153.363-.153.623-.306.623-.154 0-.052-.312-.205-.778-.205-.726-.717-1.556-1.998-1.556-1.28 0-1.843 1.193-2.1 1.815-.204.415-.204.519-.358.519-.153 0 0-.312.103-.726.153-.778 0-1.4 0-1.4h-2.049v8.037h2.817V14.31c0-.778.307-1.815.87-1.815.615 0 .769.519.769 1.452v4.356h2.816V14.31c0-.726.256-1.815.87-1.815.616 0 .718.726.718 1.452v4.356h2.765v-4.719c0-2.074-.717-3.474-2.56-3.474-1.23 0-1.844 1.037-2.151 1.66zM74 18.304h2.817v-7.985s-.512.259-1.434.259c-.922 0-1.383-.26-1.383-.26v7.986zm1.383-10.526c-.922 0-1.742.518-1.742 1.192 0 .623.82 1.141 1.742 1.141.973 0 1.74-.518 1.74-1.14 0-.675-.767-1.193-1.74-1.193zm-7.272 4.148c-.103.311-.154.518-.256.518-.205 0-.052-.363 0-.57.153-.415.41-1.504.41-2.8 0-.881-.103-1.192-.103-1.192h-2.407v10.37h2.765v-3.94c0-.675.256-1.764 1.025-1.764.512 0 .717.415.717 1.348v4.408h2.816V14c0-2.074-.307-3.94-2.56-3.94-1.64 0-2.254 1.555-2.356 1.866h-.051zm-7.682 2.333c0-.674.615-1.348 1.844-1.348.906.025 1.79.294 2.56.778v-2.748s-.82-.83-2.868-.83c-2.1 0-3.892 1.296-3.892 4.045 0 2.748 1.588 4.303 3.892 4.303 1.793 0 2.868-1.037 2.868-1.037V14.83c-.358.155-1.28.83-2.56.83-1.383 0-1.844-.623-1.844-1.4zm-5.89 4.045h2.766V7.882H54.54V18.304zm-3.738 0h2.817v-7.985s-.512.259-1.434.259c-.922 0-1.383-.26-1.383-.26v7.986zm1.434-10.526c-1.024 0-1.74.518-1.74 1.192 0 .623.767 1.141 1.69 1.141.972 0 1.74-.518 1.74-1.14 0-.675-.768-1.193-1.74-1.193h.05zm-6.401 8.607c-.666.156-1.024 0-1.024-.518 0-.623.614-.882 1.536-.882l.768.052c0 .26-.563 1.193-1.28 1.348zm.666-6.274c-2.151 0-3.688.83-3.688.83v2.385s1.69-1.037 3.073-1.037c1.127 0 1.23.622 1.178 1.14 0 0-.307-.103-1.28-.103-2.254 0-3.431 1.089-3.431 2.8 0 1.66 1.28 2.333 2.406 2.333a2.639 2.639 0 0 0 2.51-1.659c.153-.363.153-.57.307-.57s.102.155.102.518c0 .622 0 1.141.103 1.556h2.1v-3.941c0-2.489-.82-4.252-3.38-4.252zm-9.474 1.66c-.205.362-.205.622-.359.622s0-.26-.205-.778a1.974 1.974 0 0 0-.716-1.15 1.93 1.93 0 0 0-1.281-.406c-1.28 0-1.844 1.193-2.1 1.815-.205.415-.205.519-.307.519-.205 0-.051-.312 0-.726.205-.778.051-1.4.051-1.4h-2.048v8.037h2.816V14.31c0-.778.308-1.815.871-1.815.615 0 .768.519.768 1.452v4.356h2.817V14.31c0-.726.256-1.815.87-1.815.615 0 .717.726.717 1.504v4.356h2.766v-4.719c0-2.074-.717-3.474-2.56-3.474-1.23 0-1.844 1.037-2.1 1.66v-.053z" fill="#241C15"/></svg>