<svg width="188" height="41" fill="none" xmlns="http://www.w3.org/2000/svg"><path d="M180.492 24.051c-1.245 0-2.16-1.078-2.16-2.581 0-1.46.941-2.581 2.117-2.581 1.51 0 2.154.946 2.154 2.58 0 1.7-.593 2.582-2.111 2.582zm1.49-8.258c-1.01.017-1.99.24-2.814.639-.824.4-1.454.958-1.81 1.605-.367.537-.349.695-.617.695-.388 0-.066-.432.108-.94a2.925 2.925 0 0 0 .082-1.764h-3.976v13.037h5.427V24.93c.355.457.882.84 1.527 1.11a5.77 5.77 0 0 0 2.139.43c3.924 0 5.899-2.27 5.899-5.335 0-3.475-2.364-5.344-5.966-5.344l.001.001zm-40.519.249v10.204h5.427V16.042a8.08 8.08 0 0 1-2.708.365 8.194 8.194 0 0 1-2.719-.365zm-6.727-.247c-3.142 0-4.337 2.034-4.578 2.388-.241.353-.361.556-.558.552-.343-.008-.104-.434.03-.71.524-1.155.79-2.358.788-3.568a3.305 3.305 0 0 0-.226-1.522h-4.685v13.312h5.427v-5.083c0-.828.483-2.275 1.851-2.275 1.132 0 1.487.574 1.487 1.729v5.63h5.427V20.84c0-2.622-.636-5.043-4.963-5.043v-.002zm-19.493 5.343c0-.918 1.249-1.754 3.541-1.754 1.754.032 3.464.38 4.958 1.009v-3.554s-1.587-1.044-5.489-1.044c-4.113 0-7.538 1.645-7.538 5.185 0 3.54 3.108 5.502 7.527 5.502 2.001.02 3.949-.439 5.509-1.296v-3.375c-1.464.677-3.176 1.06-4.942 1.11-2.623 0-3.567-.825-3.567-1.782h.001zm-11.4-8.203h5.427v13.312h-5.427V12.935zM87.031 23.856c-1.298.205-1.97-.068-1.97-.655 0-.805 1.219-1.128 2.958-1.128.767 0 1.488.045 1.488.045-.179.404-.497.773-.928 1.076-.43.302-.962.53-1.548.663zm1.321-8.06c-2.462-.008-4.898.348-7.14 1.043v3.07s3.294-1.294 5.966-1.294c2.133 0 2.395.786 2.298 1.439a16.955 16.955 0 0 0-2.492-.112c-4.423 0-6.656 1.374-6.656 3.577 0 2.09 2.509 2.963 4.624 2.963 1.023.026 2.035-.159 2.901-.532.867-.372 1.55-.915 1.957-1.557.289-.466.342-.78.602-.78.296 0 .196.225.182.69a5.178 5.178 0 0 0 .22 1.944h4.09v-5.028c0-3.14-1.625-5.424-6.551-5.424h-.001zm77.871-.003c-.915.032-1.796.25-2.528.626-.733.376-1.284.894-1.582 1.486-.303.462-.387.828-.633.828-.346 0-.115-.404-.381-1.022-.205-.584-.709-1.098-1.421-1.45-.712-.352-1.585-.518-2.46-.468-2.508 0-3.582 1.448-4.091 2.244-.348.544-.349.695-.617.695-.388 0-.066-.432.108-.94a2.925 2.925 0 0 0 .082-1.764h-3.976v10.215h5.427v-5.082c0-1.003.614-2.275 1.666-2.275 1.215 0 1.459.638 1.459 1.819v5.541h5.449v-5.085c0-.893.533-2.275 1.674-2.275 1.232 0 1.451.896 1.451 1.819v5.538h5.351v-6.007c0-2.667-1.375-4.444-4.977-4.444l-.001.001zm-92.114 0c-.915.032-1.796.25-2.528.626-.733.376-1.284.894-1.582 1.486-.303.462-.387.828-.633.828-.346 0-.098-.318-.381-1.022-.216-.58-.723-1.09-1.432-1.44-.71-.35-1.576-.52-2.449-.478-2.508 0-3.582 1.448-4.091 2.244-.348.544-.349.695-.617.695-.388 0-.066-.432.108-.94a2.932 2.932 0 0 0 .082-1.764H56.61v10.215h5.427v-5.082c0-1.003.614-2.275 1.666-2.275 1.215 0 1.459.638 1.459 1.819v5.541h5.449v-5.085c0-.893.533-2.275 1.674-2.275 1.232 0 1.451.896 1.451 1.819v5.538h5.351v-6.007c0-2.667-1.375-4.444-4.977-4.444l-.001.001zm66.73-1.48c0-.817 1.487-1.48 3.322-1.48s3.322.663 3.322 1.48c0 .819-1.487 1.482-3.322 1.482s-3.322-.663-3.322-1.481zm-41.461 2.094a8.08 8.08 0 0 0 2.708-.365v10.204h-5.427V16.042l2.719.365zm-3.343-2.093c0-.818 1.487-1.482 3.322-1.482s3.322.664 3.322 1.482-1.487 1.481-3.322 1.481-3.322-.663-3.322-1.481z" fill="#000"/><path d="M11.546 21.17a7.336 7.336 0 0 0-1.182.054c-.65.072-1.273.231-1.831.47a4.697 4.697 0 0 0-1.424.915 3.015 3.015 0 0 0-.795 1.22 2.344 2.344 0 0 0-.044 1.336c.283 1.826 3.132 3.366 5.77 3.412.27.004.541-.008.809-.037 2.854-.316 3.601-2.325 3.13-4.3-.53-2.228-2.855-3.014-4.433-3.07zm2.796 5.28c-.12.124-.287.223-.484.286-.196.063-.413.089-.63.074-.379-.02-.732-.139-.99-.33-.256-.193-.396-.444-.391-.704-.007-.347.091-.69.287-1.01a.65.65 0 0 0 .033-.638c-.1-.209-.308-.386-.583-.499a2.18 2.18 0 0 0-1.136-.137c-.378.05-.711.2-.929.416a1.912 1.912 0 0 0-.34.52 1.422 1.422 0 0 1-.037.073c-.13.225-.336.291-.475.279a.332.332 0 0 1-.138-.047.188.188 0 0 1-.077-.09 1.34 1.34 0 0 1 .098-.9c.138-.29.375-.554.691-.768.276-.188.611-.331.98-.417a3.688 3.688 0 0 1 1.147-.08c.406.032.794.133 1.13.291.337.16.612.372.801.619.183.298.256.622.215.943a1.628 1.628 0 0 1-.451.904l-.087.128a.57.57 0 0 0-.147.35.548.548 0 0 0 .12.356c.073.067.169.121.28.157.11.037.23.054.353.052.117-.001.233-.012.346-.032.146-.022.298-.045.39.03.031.024.05.053.054.085a.112.112 0 0 1-.03.09z" fill="#fff"/><path d="M48.018 30.195c.595-1.032.94-2.124 1.02-3.233 0-1.363-1.13-1.928-1.85-1.928-.021-.052-.163-.408-.36-.835a5.598 5.598 0 0 0-.397-.73c.588-.555.837-1.245.694-1.924-.118-.523-.482-1.006-1.037-1.376-1.055-.611-2.313-1.036-3.664-1.238-.203-.039-.874-.164-.933-.177-.005-.026-.05-1.5-.09-2.134a5.204 5.204 0 0 0-.412-1.877c-.318-.876-.976-1.677-1.904-2.32 2.324-1.644 3.775-3.455 3.772-5.008-.007-2.988-5.385-3.893-12.012-2.02-.007.002-1.394.403-1.404.407-.006-.004-2.539-1.7-2.577-1.722C19.308-.418-4.316 17.5 3.237 21.852l1.65.955c-.445.815-.602 1.691-.458 2.556.224 1.259 1.134 2.413 2.549 3.233 1.373.852 3.148 1.34 5.002 1.374 2.94 4.622 9.655 7.457 17.53 7.617 8.446.171 15.537-2.533 18.508-7.392zm1.734-5.47c.723.639 1.096 1.43 1.052 2.237-.076 1.259-.462 2.5-1.14 3.67l-.016.028c-1.532 2.518-4.208 4.634-7.634 6.035-3.564 1.417-7.626 2.144-11.75 2.105-.268 0-.539-.003-.807-.008-4.07-.058-8.043-.86-11.506-2.321-3.05-1.306-5.517-3.157-7.134-5.353-1.864-.198-3.604-.76-5.01-1.62-1.749-1.02-2.868-2.454-3.136-4.015a4.808 4.808 0 0 1 .19-2.268l-.766-.443c-.62-.366-1.124-.815-1.481-1.319S.055 20.4.02 19.84c-.063-1.161.231-2.319.863-3.398 1.573-2.935 5.191-6.43 9.68-9.348 2.004-1.328 4.226-2.493 6.623-3.471 1.998-.874 4.294-1.38 6.663-1.467 1.529-.027 3.017.334 4.177 1.015.066.04 1.058.703 1.81 1.206l.329-.094a26.458 26.458 0 0 1 7.046-1.069c4.497 0 7.407 1.648 7.412 4.199.004 1.574-1.127 3.338-3.212 5.046.568.6.997 1.254 1.273 1.943a6.09 6.09 0 0 1 .482 2.165c.02.315.041.821.058 1.268 1.538.266 2.959.781 4.143 1.503.803.544 1.329 1.25 1.502 2.013.174.754.003 1.526-.488 2.21a7.58 7.58 0 0 1 .245.526c.433.16.816.377 1.126.639z" fill="#fff"/><path d="M44.397 23.233c.287-.184.51-.409.655-.658.144-.25.206-.519.18-.787-.057-.27-.241-.52-.525-.712-.833-.473-1.823-.797-2.884-.944-.484-.094-.813-.154-1.167-.235-.63-.143-.94-.258-1.011-1.076-.03-.358-.121-1.604-.154-2.119-.057-.902-.214-2.135-1.322-2.645-.281-.127-.61-.2-.947-.209a2.562 2.562 0 0 0-.562.038c-.562.09-1.074.29-1.472.575a5.879 5.879 0 0 1-1.786.72 7.25 7.25 0 0 1-2.06.167c-.775-.022-1.596-.106-2.538-.144l-.55-.022c-1.217.024-2.38.347-3.278.909-.898.562-1.47 1.325-1.613 2.152-.539 2.562 2.147 3.886 2.923 4.663.12.1.194.22.213.349-.02.142-.119.273-.276.367-1.073.826-1.827 1.823-2.192 2.9a4.603 4.603 0 0 0 .495 4.01c1.96 3.164 8.04 4.637 13.98 3.297a18.628 18.628 0 0 0 2.257-.659c1.302-.445 2.473-1.05 3.455-1.784 1.532-1.062 2.539-2.425 2.877-3.898.18-.816-.083-1.131-.44-1.283a1.827 1.827 0 0 0-.83-.105 6.175 6.175 0 0 0-.79-1.861l-.638-1.006zM34.663 11.012c.096.015.157-.098.07-.13a14.834 14.834 0 0 0-4.58-.82.112.112 0 0 1-.044-.009.072.072 0 0 1-.03-.023.042.042 0 0 1-.009-.03.048.048 0 0 1 .017-.029c.248-.222.538-.42.862-.59a.064.064 0 0 0 .03-.03.042.042 0 0 0-.002-.037.07.07 0 0 0-.034-.029.118.118 0 0 0-.052-.01c-1.956.132-3.836.585-5.48 1.32a.114.114 0 0 1-.048.01.113.113 0 0 1-.047-.01.068.068 0 0 1-.03-.026.04.04 0 0 1-.005-.034c.133-.337.328-.662.58-.965a.041.041 0 0 0 .01-.035.052.052 0 0 0-.023-.03.098.098 0 0 0-.045-.017.115.115 0 0 0-.05.006c-2.374.89-4.49 2.07-6.244 3.481a.049.049 0 0 0-.02.039c0 .014.008.028.022.038a.115.115 0 0 0 .113.008c2.031-.97 4.32-1.66 6.739-2.032 2.73-.43 5.567-.436 8.3-.016M27.671 6.435S25.615 4.81 24.994 4.69c-3.82-.705-12.07 3.178-17.337 8.307-2.132 2.075-5.183 5.75-3.724 7.641.519.424 1.103.81 1.744 1.147.977-.936 2.448-1.577 4.103-1.786 2.077-3.968 5.723-7.465 10.533-10.102a59.347 59.347 0 0 1 7.358-3.46z" fill="#fff"/><path d="M14.204 26.38c.03.025.048.055.052.086a.118.118 0 0 1-.029.091c-.11.123-.27.223-.459.287-.189.065-.4.092-.61.079-.376-.028-.722-.152-.968-.347-.247-.195-.376-.447-.36-.704a1.97 1.97 0 0 1 .275-1.026.678.678 0 0 0 .035-.641c-.096-.21-.295-.391-.564-.513a1.845 1.845 0 0 0-.525-.145 2.077 2.077 0 0 0-.566.005 1.789 1.789 0 0 0-.509.15 1.253 1.253 0 0 0-.383.273 1.962 1.962 0 0 0-.328.527 1.282 1.282 0 0 1-.035.075c-.124.23-.323.296-.457.284a.253.253 0 0 1-.207-.14 1.41 1.41 0 0 1 .094-.907c.131-.294.359-.563.665-.787.258-.189.578-.333.933-.421a3.425 3.425 0 0 1 1.111-.084c.397.037.774.141 1.098.303.324.161.584.375.758.622.175.303.246.63.207.956-.04.325-.188.64-.434.92-.031.047-.06.09-.084.13a.6.6 0 0 0-.141.357.58.58 0 0 0 .115.36c.068.067.159.122.265.158.106.037.224.056.343.054.113-.001.224-.012.333-.032.14-.023.286-.046.375.03zm34.757.593c-.079 1.106-.42 2.196-1.012 3.227-2.952 4.848-9.996 7.546-18.387 7.376-7.823-.16-14.495-2.989-17.415-7.601-1.844-.036-3.607-.522-4.97-1.372-1.407-.82-2.31-1.971-2.532-3.226-.143-.863.013-1.736.456-2.55l-1.64-.953C-4.043 17.531 19.427-.349 26.934 4.14c.037.022 2.553 1.714 2.56 1.718l1.394-.406c6.584-1.868 11.927-.966 11.933 2.015.004 1.551-1.438 3.358-3.747 4.999.923.642 1.577 1.441 1.892 2.315a5.21 5.21 0 0 1 .41 1.873c.04.631.084 2.104.088 2.13l.928.176c1.343.201 2.593.626 3.64 1.236.551.369.913.85 1.03 1.372.142.677-.105 1.366-.69 1.92.152.238.284.48.395.728.195.427.336.782.358.834.714 0 1.836.564 1.836 1.924zm-33.16-2.66c-.511-2.264-2.745-3.062-4.261-3.119a6.68 6.68 0 0 0-1.136.056c-2.706.374-4.234 1.951-3.933 4.002.218.92.885 1.761 1.89 2.39 1.007.629 2.294 1.008 3.654 1.075.26.005.52-.008.777-.038 2.742-.32 3.46-2.361 3.008-4.366zm4.624-14.37a58.848 58.848 0 0 1 7.31-3.454s-2.043-1.623-2.66-1.743c-3.794-.703-11.99 3.172-17.223 8.29-2.118 2.071-5.149 5.74-3.7 7.625.515.424 1.096.807 1.733 1.145.968-.933 2.43-1.573 4.077-1.783 2.059-3.956 5.68-7.445 10.463-10.08zm8.247 17.914c.1.3.318.577.63.8.311.224.705.386 1.14.468.453.116.92.203 1.395.26 6.002.708 11.613-1.644 12.876-2.237.095-.044.158 0 .082.078-.038.041-.08.082-.124.12-1.546 1.367-5.703 2.95-11.11 2.95-2.359 0-4.716-.57-5.582-1.445-1.343-1.358-.066-3.34 2.171-3.133l.98.076c3.478.228 6.984-.156 10.183-1.117 3.053-.972 4.206-2.04 4.033-2.906-.058-.269-.243-.517-.526-.707-.835-.47-1.826-.792-2.886-.937-.485-.094-.814-.153-1.169-.233-.63-.142-.941-.257-1.012-1.07-.03-.354-.121-1.592-.154-2.103-.057-.896-.214-2.12-1.323-2.627a2.491 2.491 0 0 0-.948-.207c-.19-.008-.38.005-.563.038-.562.088-1.073.287-1.473.57a5.93 5.93 0 0 1-1.79.716 7.296 7.296 0 0 1-2.06.165c-.775-.022-1.597-.105-2.54-.143l-.551-.022c-1.213.022-2.375.34-3.274.899-.898.558-1.473 1.317-1.621 2.14-.54 2.545 2.149 3.86 2.925 4.632.12.098.195.218.214.346-.02.14-.12.271-.276.364v.001c-1.074.817-1.829 1.806-2.194 2.876a4.546 4.546 0 0 0 .495 3.985c1.961 3.142 8.047 4.605 13.993 3.274a18.786 18.786 0 0 0 2.259-.654c1.302-.44 2.474-1.041 3.459-1.771 1.531-1.052 2.539-2.407 2.88-3.872.178-.81-.084-1.123-.44-1.274a1.848 1.848 0 0 0-.831-.104 6.111 6.111 0 0 0-.791-1.848c-1.698.876-3.618 1.53-5.663 1.93-2.46.475-5.02.665-7.572.561-1.642-.09-2.728-.419-3.137.491 2.484.568 5.121.752 7.721.538a.202.202 0 0 1 .055.004c.017.004.034.01.048.018a.114.114 0 0 1 .035.028.075.075 0 0 1 .015.036.077.077 0 0 1-.02.06.143.143 0 0 1-.066.042s-3.05.97-7.893-.056zM19.74 13.1c2.017-.968 4.291-1.657 6.695-2.029a26.86 26.86 0 0 1 8.246-.015c.095.015.156-.098.07-.13a14.681 14.681 0 0 0-4.551-.818.113.113 0 0 1-.043-.01.071.071 0 0 1-.03-.022.042.042 0 0 1-.008-.03.048.048 0 0 1 .016-.03c.246-.22.534-.418.856-.588a.063.063 0 0 0 .03-.03.041.041 0 0 0-.002-.037.07.07 0 0 0-.033-.029.117.117 0 0 0-.052-.01c-1.944.132-3.813.584-5.444 1.318a.113.113 0 0 1-.048.01.113.113 0 0 1-.047-.01.067.067 0 0 1-.03-.027.04.04 0 0 1-.004-.033 3.53 3.53 0 0 1 .576-.964.04.04 0 0 0 .01-.034.051.051 0 0 0-.023-.03.098.098 0 0 0-.045-.017.115.115 0 0 0-.05.005c-2.36.89-4.462 2.068-6.202 3.475-.014.01-.021.024-.021.038 0 .014.008.028.022.038a.116.116 0 0 0 .112.008zm15.805 8.637c.164.071.36.099.552.077a.915.915 0 0 0 .487-.195c.152-.2-.068-.472-.49-.607a1.102 1.102 0 0 0-.554-.076.916.916 0 0 0-.486.195c-.152.2.068.471.49.606zm1.296-3.247c.102.36.32.701.64.996.331-.028.665-.028.996 0 .193-.396.21-.822.049-1.224-.24-.742-.563-1.191-1.23-1.122-.669.07-.694.608-.455 1.35zm1.422 1.706a1.21 1.21 0 0 0-.513.01.875.875 0 0 0-.408.214.457.457 0 0 0-.15.335.47.47 0 0 0 .165.333c.105.096.25.167.417.204.167.037.347.037.514 0a.902.902 0 0 0 .417-.204.47.47 0 0 0 .165-.332c.024-.129-.025-.26-.139-.364a.837.837 0 0 0-.468-.197z" fill="#000"/><path d="M27.17 20.13c-.107-.01-.153-.041-.166-.083-.041-.128.247-.338.55-.49a4.157 4.157 0 0 1 1.509-.406 4.575 4.575 0 0 1 1.605.15c.475.134.882.358 1.175.646.108.121.13.215.06.264-.11.079-.39-.011-.843-.147a5.207 5.207 0 0 0-1.756-.259c-.72.081-1.433.19-2.135.325zm4.526.637a1.954 1.954 0 0 0-.71-.307 2.49 2.49 0 0 0-.84-.04c-.413.03-.805.141-1.127.32-.15.074-.254.184-.289.309 0 .013.003.027.011.04.008.013.02.024.035.033a.185.185 0 0 0 .097.026 2.49 2.49 0 0 0 .433-.082 5.418 5.418 0 0 1 1.904-.136c.298.023.438.036.503-.034a.086.086 0 0 0 .021-.066.1.1 0 0 0-.038-.063z" fill="#000"/><path d="M30.855 20.953c.187-.456.198-.938.031-1.397-.242-.744-.607-1.169-1.285-1.099-.677.07-.695.67-.477 1.416.1.342.296.668.577.96.539.514.904.38 1.153.12z" fill="#000"/></svg>