<svg width="17" height="17" fill="none" xmlns="http://www.w3.org/2000/svg"><g clip-path="url(#clip0)"><path d="M8.5 17a8.5 8.5 0 1 0 0-17 8.5 8.5 0 0 0 0 17z" fill="#fff"/><path d="M8.5 0A8.5 8.5 0 0 0 0 8.5a8.503 8.503 0 0 0 5.4 7.92c-.076-.672-.14-1.708.029-2.442.154-.665.993-4.226.993-4.226s-.252-.51-.252-1.259c0-1.182.686-2.064 1.54-2.064.727 0 1.077.546 1.077 1.197 0 .727-.462 1.818-.707 2.833-.203.846.427 1.539 1.26 1.539 1.51 0 2.672-1.595 2.672-3.89 0-2.036-1.462-3.456-3.554-3.456-2.42 0-3.84 1.812-3.84 3.687 0 .728.28 1.511.629 1.938.07.084.077.16.056.245-.063.266-.21.846-.238.965-.035.154-.126.19-.287.112-1.063-.497-1.728-2.043-1.728-3.295 0-2.68 1.945-5.142 5.618-5.142 2.945 0 5.24 2.099 5.24 4.911 0 2.931-1.847 5.29-4.408 5.29-.86 0-1.672-.449-1.944-.98l-.532 2.022c-.189.741-.707 1.665-1.057 2.231a8.536 8.536 0 0 0 2.519.378 8.5 8.5 0 0 0 8.5-8.5A8.482 8.482 0 0 0 8.5 0z" fill="#241C15"/></g><defs><clipPath id="clip0"><path fill="#fff" d="M0 0h17v17H0z"/></clipPath></defs></svg>