<svg width="19" height="16" fill="none" xmlns="http://www.w3.org/2000/svg"><g clip-path="url(#clip0)"><path d="M16.762 2.53A4.024 4.024 0 0 0 18.476.296a7.631 7.631 0 0 1-2.477.979A3.825 3.825 0 0 0 13.154 0c-2.151 0-3.897 1.809-3.897 4.039 0 .317.033.624.1.92C6.117 4.79 3.246 3.184 1.322.737A4.143 4.143 0 0 0 .795 2.77c0 1.401.688 2.637 1.734 3.362a3.799 3.799 0 0 1-1.767-.504v.05c0 1.958 1.344 3.591 3.128 3.96a3.671 3.671 0 0 1-1.027.142c-.251 0-.496-.024-.734-.072.496 1.604 1.935 2.772 3.641 2.804a7.649 7.649 0 0 1-5.771 1.675A10.772 10.772 0 0 0 5.974 16c7.171 0 11.091-6.154 11.091-11.492l-.01-.524a8.041 8.041 0 0 0 1.944-2.091 7.56 7.56 0 0 1-2.238.636l.001.001z" fill="#241C15"/></g><defs><clipPath id="clip0"><path fill="#fff" d="M0 0h19v16H0z"/></clipPath></defs></svg>